<?xml version="1.0" standalone="no"?>
<!DOCTYPE svg PUBLIC "-//W3C//DTD SVG 20010904//EN"
 "http://www.w3.org/TR/2001/REC-SVG-20010904/DTD/svg10.dtd">
<svg version="1.0" xmlns="http://www.w3.org/2000/svg"
 width="512.000000pt" height="512.000000pt" viewBox="0 0 512.000000 512.000000"
 preserveAspectRatio="xMidYMid meet">
<metadata>
Created by potrace 1.11, written by Peter Selinger 2001-2013
</metadata>
<g transform="translate(0.000000,512.000000) scale(0.100000,-0.100000)"
fill="#000000" stroke="none">
<path d="M2935 4920 c-35 -14 -112 -96 -159 -167 -41 -63 -126 -247 -126 -271
0 -6 -5 -22 -11 -36 -11 -23 -13 -22 -45 42 -81 161 -240 266 -438 289 -86 10
-155 8 -168 -5 -6 -6 -11 -46 -12 -89 -1 -68 3 -86 29 -137 31 -61 80 -110
154 -154 44 -25 151 -68 193 -76 13 -2 44 -9 69 -15 25 -6 72 -13 105 -17 32
-3 60 -7 61 -8 3 -2 -8 -67 -22 -136 -3 -14 -8 -41 -11 -60 -2 -19 -7 -46 -9
-60 -12 -66 -24 -159 -31 -255 -4 -44 -8 -87 -9 -95 -2 -8 -4 -18 -4 -22 -2
-17 -194 28 -460 107 -388 114 -613 107 -808 -26 -281 -193 -447 -613 -447
-1129 0 -101 12 -312 19 -333 2 -6 6 -36 10 -66 3 -30 8 -64 10 -75 3 -12 7
-32 9 -46 50 -285 163 -635 319 -985 185 -416 322 -613 514 -742 88 -59 175
-85 298 -88 167 -5 247 19 393 117 155 105 249 105 403 1 146 -98 205 -117
369 -118 192 0 312 53 455 200 77 80 77 80 127 150 136 196 325 604 438 945
147 443 206 855 177 1230 -41 507 -265 900 -579 1010 -176 62 -356 48 -688
-52 -205 -62 -404 -107 -412 -95 -4 6 -5 14 -4 17 2 3 6 44 10 91 4 47 8 95
10 105 2 10 7 42 10 69 4 28 11 75 16 105 5 30 12 71 15 90 12 72 46 208 76
298 58 178 111 271 201 353 43 39 51 52 50 80 -1 54 -45 81 -97 59z"/>
</g>
</svg>
